<svg height="511pt" viewBox="0 0 511 511.95733" width="511pt" xmlns="http://www.w3.org/2000/svg"><path d="m495.070312 375.425781h-51.199218v-51.203125c0-9.425781-7.640625-17.066406-17.066406-17.066406h-34.132813c-9.425781 0-17.066406 7.640625-17.066406 17.066406v51.203125h-51.203125c-9.425782 0-17.066406 7.640625-17.066406 17.066407v34.132812c0 9.425781 7.640624 17.066406 17.066406 17.066406h51.203125v51.199219c0 9.425781 7.640625 17.066406 17.066406 17.066406h34.132813c9.425781 0 17.066406-7.640625 17.066406-17.066406v-51.199219h51.199218c9.425782 0 17.066407-7.640625 17.066407-17.066406v-34.132812c0-9.425782-7.640625-17.066407-17.066407-17.066407zm0 51.199219h-51.199218c-9.425782 0-17.066406 7.640625-17.066406 17.066406v51.199219h-34.132813v-51.199219c0-9.425781-7.640625-17.066406-17.066406-17.066406h-51.203125v-34.132812h51.203125c9.425781 0 17.066406-7.640626 17.066406-17.066407v-51.203125h34.132813v51.203125c0 9.425781 7.640624 17.066407 17.066406 17.066407h51.199218zm0 0"/><path d="m110.429688 259.515625c-10.914063 7.085937-21.054688 15.304687-30.25 24.515625-2.355469 2.113281-3.347657 5.351562-2.582032 8.421875.765625 3.066406 3.164063 5.460937 6.234375 6.21875 3.070313.757813 6.308594-.246094 8.414063-2.609375 8.355468-8.335938 17.5625-15.773438 27.46875-22.183594 2.597656-1.640625 4.113281-4.554687 3.96875-7.625-.148438-3.066406-1.933594-5.820312-4.675782-7.207031-2.742187-1.386719-6.019531-1.191406-8.578124.511719zm0 0"/><path d="m195.601562 233.847656c-16.421874-.515625-32.796874 2.042969-48.28125 7.542969-4.457031 1.53125-6.832031 6.386719-5.300781 10.847656 1.535157 4.457031 6.390625 6.828125 10.847657 5.296875 13.46875-4.808594 27.71875-7.0625 42.019531-6.636718 4.710937.195312 8.691406-3.464844 8.890625-8.175782.199218-4.714844-3.460938-8.695312-8.175782-8.890625zm0 0"/><path d="m480.898438 49.28125c-.128907-.085938-.207032-.214844-.34375-.292969-1.449219-.785156-2.953126-1.449219-4.445313-2.105469-.289063-.128906-.5625-.28125-.851563-.410156-2.300781-.964844-4.65625-1.78125-7.058593-2.449218h-.085938c-6.515625-23.3125-26.355469-40.460938-50.363281-43.535157-24.011719-3.074219-47.53125 8.519531-59.714844 29.433594-12.183594 20.917969-10.664062 47.09375 3.855469 66.460937l-80.214844 80.214844c-4.453125-10.242187-11.089843-20.8125-19.8125-21.1875-4.273437-.214844-8.265625 2.132813-10.15625 5.972656-1.386719 2.832032-2.105469 5.949219-2.097656 9.105469-.507813 9.984375-5.171875 19.300781-12.859375 25.691407-8.300781 6.964843-19.101562 10.203124-29.867188 8.960937-50.347656-5.828125-105.4375 15.871094-147.582031 58.027344-66.714843 66.664062-78.433593 163.457031-26.140625 215.765625 22.433594 21.808594 52.710938 33.648437 83.984375 32.84375 6.566407-.007813 13.121094-.433594 19.628907-1.277344 42.726562-6.386719 82.164062-26.65625 112.222656-57.6875 42.152344-42.144531 63.84375-97.28125 58.027344-147.574219-1.253907-10.765625 1.988281-21.574219 8.964843-29.867187 6.503907-7.785156 15.988281-12.464844 26.121094-12.894532 14.398437-.632812 14.703125-10.289062 14.617187-12.226562-.3125-7.1875-8.761718-14.347656-21.179687-19.824219l80.214844-80.214843c18.015625 13.675781 42.171875 16.105468 62.550781 6.292968s33.542969-30.210937 34.085938-52.820312c.546874-22.609375-11.621094-43.621094-31.5-54.402344zm-177.980469 215.082031c-9.992188 11.886719-14.648438 27.367188-12.878907 42.792969 5.214844 45.132812-14.652343 95.0625-53.144531 133.554688-27.382812 28.363281-63.339843 46.925781-102.324219 52.824218-35.769531 4.589844-67.523437-4.890625-89.34375-26.703125-45.636718-45.609375-33.917968-131.582031 26.121094-191.632812 34.441406-34.441407 78.011719-53.964844 119.125-53.964844 4.820313.011719 9.636719.296875 14.421875.855469 15.441407 1.785156 30.9375-2.875 42.835938-12.878906 8.59375-7.195313 14.671875-16.933594 17.367187-27.808594 2.023438 4.398437 3.707032 8.945312 5.035156 13.601562.511719 1.765625 1.03125 3.738282 1.527344 5.921875l.085938.324219c.519531 2.328125 1.003906 4.90625 1.414062 7.628906.078125.488282.128906 1 .199219 1.484375.296875 2.203125.535156 4.515625.714844 6.914063.050781.792968.109375 1.578125.144531 2.378906.144531 2.988281.222656 6.066406.078125 9.277344-.105469 2.390625.796875 4.714844 2.492187 6.40625 1.710938 1.65625 4.015626 2.554687 6.398438 2.492187 3.148438-.136719 6.144531-.066406 9.070312.078125 1 0 1.980469.109375 2.960938.1875 2.015625.152344 3.957031.351563 5.828125.597656.855469.109376 1.707031.195313 2.5625.324219 2.5.390625 4.878906.851563 7.039063 1.3125.757812.171875 1.449218.367188 2.191406.546875 1.46875.367188 2.929687.726563 4.191406 1.09375 4.675781 1.3125 9.242188 2.992188 13.652344 5.023438-10.855469 2.710937-20.578125 8.789062-27.765625 17.367187zm179.507812-131.832031c-16.867187 16.863281-44.210937 16.863281-61.074219 0-3.332031-3.332031-8.734374-3.332031-12.066406 0l-91.835937 91.851562c-.5625-.136718-1.203125-.261718-1.785157-.398437l-1.234374-.273437c-1.546876-.351563-3.148438-.667969-4.839844-.980469l-.671875-.121094c-1.707031-.300781-3.476563-.582031-5.328125-.855469l-.664063-.074218c-1.765625-.230469-3.550781-.4375-5.425781-.597657-.410156 0-.855469-.042969-1.230469-.078125-1.613281-.117187-3.199219-.253906-4.871093-.304687-.085938-2.492188-.257813-4.898438-.46875-7.246094 0-.273437-.070313-.53125-.097657-.800781-.203125-2.023438-.433593-3.988282-.714843-5.882813-.058594-.398437-.128907-.773437-.1875-1.167969-.273438-1.707031-.554688-3.414062-.855469-4.964843-.082031-.425781-.167969-.855469-.261719-1.253907-.300781-1.457031-.617188-2.859374-.949219-4.207031-.042969-.171875-.074219-.367187-.117187-.539062l86.238281-86.253907c7.507813 5.652344 16.242187 9.453126 25.496094 11.09375.5.082032 1.003906.125 1.511719.125 4.410156-.015624 8.078124-3.390624 8.464843-7.785156.382813-4.394531-2.640625-8.359375-6.980469-9.144531-8.683593-1.53125-16.683593-5.703125-22.914062-11.945313-16.546875-16.914062-16.398438-44 .335938-60.730468 16.734374-16.734375 43.816406-16.878906 60.730468-.324219 3.503906 3.539063 6.363282 7.667969 8.445313 12.191406-5.941407.273438-11.816407 1.421875-17.421875 3.414063-4.347656 1.644531-6.578125 6.464844-5.019532 10.839844 1.554688 4.378906 6.328126 6.703124 10.734376 5.238281 8.007812-2.789063 16.65625-3.171875 24.875-1.09375.898437.222656 1.800781.417969 2.679687.691406 14.375 4.53125 25.339844 16.242187 28.917969 30.882813 3.578125 14.640624-.75 30.085937-11.414063 40.738281zm0 0"/></svg>