<?xml version="1.0" encoding="iso-8859-1"?>
<!-- Generator: Adobe Illustrator 19.0.0, SVG Export Plug-In . SVG Version: 6.00 Build 0)  -->
<svg version="1.1" id="Capa_1" xmlns="http://www.w3.org/2000/svg" xmlns:xlink="http://www.w3.org/1999/xlink" x="0px" y="0px"
	 viewBox="0 0 512.001 512.001" style="enable-background:new 0 0 512.001 512.001;" xml:space="preserve">
<g>
	<g>
		<path d="M477.002,27.001h-86c-13.215,0-24.74,7.364-30.695,18.201l-16.559-6.494c-19.812-7.77-40.647-11.709-61.928-11.709
			H164.799h-37.997H100c-25.364,0-46,20.635-46,46c0,10.055,3.252,19.36,8.748,26.938c-20.938,4.3-36.732,22.871-36.732,45.061
			c0,10.227,3.358,19.682,9.025,27.329C14.952,177.257,0,195.409,0,216.997c0,22.474,16.205,41.223,37.541,45.207
			c-5.433,7.552-8.646,16.803-8.646,26.795c0,25.364,20.635,46,45.999,46h112.895l-16.655,49.449
			c-6.428,19.082-4.892,39.45,4.324,57.353c9.215,17.902,24.899,30.986,44.163,36.843l19.482,5.923
			c0.968,0.294,1.947,0.435,2.911,0.435c4.107,0,7.936-2.548,9.401-6.6l30.614-84.611c8.78-24.266,26.097-44.427,48.761-56.768
			l31.443-17.122c6.325,9.115,16.858,15.099,28.768,15.099h86c19.299,0,35-15.701,35-35V62.001
			C512.002,42.702,496.301,27.001,477.002,27.001z M492.002,299.999c0,8.271-6.729,15-15,15h-5v-119.9c0-5.523-4.478-10-10-10
			c-5.522,0-10,4.477-10,10v119.9h-61c-8.271,0-15-6.729-15-15v-39.751c0-5.523-4.478-10-10-10c-5.522,0-10,4.477-10,10v39.751
			c0,0.173,0.011,0.343,0.013,0.515l-34.789,18.944c-26.96,14.68-47.559,38.662-58.003,67.528l-27.385,75.684l-10.399-3.162
			c-14.046-4.27-25.48-13.81-32.199-26.862c-6.719-13.052-7.839-27.902-3.153-41.815l21.099-62.641
			c1.028-3.051,0.523-6.411-1.354-9.026c-1.879-2.615-4.902-4.166-8.122-4.166H74.895c-14.336,0-25.999-11.664-25.999-26
			s11.663-26,25.999-26H148c5.522,0,10-4.477,10-10s-4.478-10-10-10h-37.153c-0.016,0-0.032-0.002-0.048-0.002H46
			c-14.337,0-26-11.664-26-26s11.663-26,26-26h102c5.522,0,10-4.477,10-10s-4.478-10-10-10H72.016c-14.337,0-26-11.663-26-26
			c0-14.337,11.663-26,26-26H148c5.522,0,10-4.477,10-10s-4.478-10-10-10h-48c-14.337,0-26-11.664-26-26s11.663-26,26-26h26.802
			h37.997H281.82c18.771,0,37.149,3.475,54.625,10.329l19.557,7.67v120.752c0,5.523,4.478,10,10,10c5.522,0,10-4.477,10-10V62.001
			c0-8.271,6.729-15,15-15h86c8.271,0,15,6.729,15,15V299.999z"/>
	</g>
</g>
<g>
	<g>
		<path d="M373.071,212.169c-1.859-1.86-4.439-2.93-7.069-2.93s-5.21,1.07-7.07,2.93c-1.86,1.86-2.93,4.44-2.93,7.07
			c0,2.64,1.069,5.21,2.93,7.07c1.86,1.87,4.44,2.93,7.07,2.93s5.21-1.06,7.069-2.93c1.86-1.86,2.931-4.44,2.931-7.07
			S374.932,214.029,373.071,212.169z"/>
	</g>
</g>
<g>
	<g>
		<path d="M434.002,71.915c-16.542,0-30,13.458-30,30s13.458,30,30,30s30-13.458,30-30S450.544,71.915,434.002,71.915z
			 M434.002,111.915c-5.514,0-10-4.486-10-10c0-5.514,4.486-10,10-10c5.514,0,10,4.486,10,10
			C444.002,107.429,439.516,111.915,434.002,111.915z"/>
	</g>
</g>
<g>
	<g>
		<path d="M462.002,148.983c-5.522,0-10,4.477-10,10v0.156c0,5.523,4.478,10,10,10c5.522,0,10-4.477,10-10v-0.156
			C472.002,153.46,467.524,148.983,462.002,148.983z"/>
	</g>
</g>
<g>
</g>
<g>
</g>
<g>
</g>
<g>
</g>
<g>
</g>
<g>
</g>
<g>
</g>
<g>
</g>
<g>
</g>
<g>
</g>
<g>
</g>
<g>
</g>
<g>
</g>
<g>
</g>
<g>
</g>
</svg>
