<svg viewBox="0 0 512 512" xmlns="http://www.w3.org/2000/svg"><path d="m504.5 497h-24.4375c-4.144531 0-7.5 3.355469-7.5 7.5s3.355469 7.5 7.5 7.5h24.4375c4.144531 0 7.5-3.355469 7.5-7.5s-3.355469-7.5-7.5-7.5zm0 0"/><path d="m504.5 45c4.144531 0 7.5-3.355469 7.5-7.5v-30c0-4.144531-3.355469-7.5-7.5-7.5h-497c-4.144531 0-7.5 3.355469-7.5 7.5v30c0 4.144531 3.355469 7.5 7.5 7.5h56.621094v5.5h-22.496094c-4.144531 0-7.5 3.355469-7.5 7.5v1h-26.625c-4.144531 0-7.5 3.355469-7.5 7.5v221.375c0 4.144531 3.355469 7.5 7.5 7.5s7.5-3.355469 7.5-7.5v-213.875h19.125v24c0 4.144531 3.355469 7.5 7.5 7.5h60c4.144531 0 7.5-3.355469 7.5-7.5v-24h109.375v24c0 4.144531 3.355469 7.5 7.5 7.5h60c4.144531 0 7.5-3.355469 7.5-7.5v-24h58.582031c4.144531 0 7.5-3.355469 7.5-7.5s-3.355469-7.5-7.5-7.5h-58.582031v-1c0-4.144531-3.355469-7.5-7.5-7.5h-22.5v-5.5h169.378906v5.5h-22.503906c-4.144531 0-7.5 3.355469-7.5 7.5v1h-19.207031c-4.144531 0-7.5 3.355469-7.5 7.5s3.355469 7.5 7.5 7.5h19.207031v24c0 4.144531 3.355469 7.5 7.5 7.5h60c4.144531 0 7.5-3.355469 7.5-7.5v-24h19.125v265h-482v-19.125c0-4.144531-3.355469-7.5-7.5-7.5s-7.5 3.355469-7.5 7.5v26.625c0 4.144531 3.355469 7.5 7.5 7.5h74.25v143h-74.25c-4.144531 0-7.5 3.355469-7.5 7.5s3.355469 7.5 7.5 7.5h440.3125c4.144531 0 7.5-3.355469 7.5-7.5s-3.355469-7.5-7.5-7.5h-17.5625v-143h74.25c4.144531 0 7.5-3.355469 7.5-7.5v-280c0-4.144531-3.355469-7.5-7.5-7.5h-26.625v-1c0-4.144531-3.355469-7.5-7.5-7.5h-22.496094v-5.5zm-119.25 309v143h-258.5v-143zm-288.5 143v-143h15v143zm318.5 0h-15v-143h15zm47.625-406.5h-45v-23.902344c0-.03125.003906-.066406.003906-.097656s-.003906-.0625-.003906-.097656v-.902344h45zm-447.875-75.5h482v15h-482zm34.125 75.5v-25h45v.902344c0 .03125-.003906.066406-.003906.097656s.003906.0625.003906.097656v23.902344zm229.375 0h-45v-25h45zm-30-40h-22.5c-4.144531 0-7.5 3.355469-7.5 7.5v1h-109.375v-1c0-4.144531-3.355469-7.5-7.5-7.5h-22.503906v-5.5h169.378906zm0 0"/><path d="m159.453125 170c4.140625 0 7.5-3.355469 7.5-7.5s-3.359375-7.5-7.5-7.5h-43.453125c-4.144531 0-7.5 3.355469-7.5 7.5v70c0 4.144531 3.355469 7.5 7.5 7.5h43.453125c4.140625 0 7.5-3.355469 7.5-7.5s-3.359375-7.5-7.5-7.5h-35.953125v-20h35.953125c4.140625 0 7.5-3.355469 7.5-7.5s-3.359375-7.5-7.5-7.5h-35.953125v-20zm0 0"/><path d="m277.726562 170c4.144532 0 7.5-3.355469 7.5-7.5s-3.355468-7.5-7.5-7.5h-43.453124c-4.140626 0-7.5 3.355469-7.5 7.5v70c0 4.144531 3.359374 7.5 7.5 7.5h43.453124c4.144532 0 7.5-3.355469 7.5-7.5s-3.355468-7.5-7.5-7.5h-35.953124v-20h35.953124c4.144532 0 7.5-3.355469 7.5-7.5s-3.355468-7.5-7.5-7.5h-35.953124v-20zm0 0"/><path d="m300.910156 232.5v-43.695312l29.582032 47.648437c1.390624 2.246094 3.824218 3.546875 6.371093 3.546875.683594 0 1.375-.09375 2.058594-.285156 3.21875-.921875 5.441406-3.863282 5.441406-7.214844v-70c0-4.144531-3.355469-7.5-7.5-7.5s-7.5 3.355469-7.5 7.5v43.695312l-29.582031-47.648437c-1.765625-2.847656-5.210938-4.179687-8.425781-3.261719-3.222657.921875-5.445313 3.863282-5.445313 7.214844v70c0 4.144531 3.359375 7.5 7.5 7.5 4.144532 0 7.5-3.355469 7.5-7.5zm0 0"/><path d="m196.863281 240c3.285157 0 6.1875-2.140625 7.164063-5.277344l21.726562-70c1.226563-3.953125-.984375-8.15625-4.941406-9.386718-3.957031-1.226563-8.160156.984374-9.386719 4.941406l-14.5625 46.921875-14.5625-46.921875c-1.230469-3.957032-5.425781-6.167969-9.386719-4.941406-3.957031 1.230468-6.167968 5.433593-4.941406 9.386718l21.726563 70c.976562 3.136719 3.878906 5.277344 7.164062 5.277344zm0 0"/><path d="m374.273438 240c4.140624 0 7.5-3.355469 7.5-7.5v-62.5h14.226562c4.144531 0 7.5-3.355469 7.5-7.5s-3.355469-7.5-7.5-7.5h-43.453125c-4.140625 0-7.5 3.355469-7.5 7.5s3.359375 7.5 7.5 7.5h14.226563v62.5c0 4.144531 3.359374 7.5 7.5 7.5zm0 0"/></svg>