<?xml version="1.0" encoding="iso-8859-1"?>
<!-- Generator: Adobe Illustrator 19.0.0, SVG Export Plug-In . SVG Version: 6.00 Build 0)  -->
<svg version="1.1" id="Layer_1" xmlns="http://www.w3.org/2000/svg" xmlns:xlink="http://www.w3.org/1999/xlink" x="0px" y="0px"
	 viewBox="0 0 397.768 397.768" style="enable-background:new 0 0 397.768 397.768;" xml:space="preserve">
<g>
	<g>
		<path d="M395.571,128.017L269.751,2.197C268.344,0.79,266.437,0,264.447,0c-1.99,0-3.896,0.79-5.304,2.197l-5.796,5.796
			c-7.262,7.262-11.261,16.917-11.261,27.187s3.999,19.925,11.261,27.187l1.233,1.233l-102.602,92.569
			c-7.213-7.006-16.693-10.865-26.771-10.865c-10.27,0-19.925,3.999-27.188,11.261L84.904,169.68c-2.929,2.929-2.929,7.678,0,10.606
			l48.788,48.788L5.358,357.408c-1.197,1.198-1.954,2.766-2.147,4.448l-3.162,27.557c-0.261,2.273,0.53,4.541,2.147,6.158
			c1.415,1.415,3.326,2.197,5.303,2.197c0.284,0,0.57-0.016,0.856-0.049l27.557-3.163c1.683-0.193,3.25-0.95,4.448-2.148
			l128.333-128.333l48.787,48.787c1.407,1.407,3.314,2.197,5.304,2.197s3.896-0.79,5.304-2.197l13.116-13.117
			c7.262-7.262,11.261-16.917,11.261-27.187c0-10.078-3.859-19.558-10.865-26.771l92.568-102.602l1.233,1.233
			c7.262,7.262,16.917,11.261,27.187,11.261c10.271,0,19.925-4,27.188-11.261l5.796-5.796
			C398.5,135.695,398.5,130.946,395.571,128.017z M31.603,379.952l-15.575,1.788l1.788-15.575l126.483-126.483l13.788,13.788
			L31.603,379.952z M230.597,289.14l-7.813,7.813l-121.97-121.969l7.813-7.813c4.43-4.428,10.317-6.867,16.581-6.867
			c6.263,0,12.151,2.438,16.579,6.867l88.811,88.81c4.428,4.429,6.867,10.317,6.867,16.58S235.025,284.711,230.597,289.14z
			 M230.989,235.158l-68.38-68.38L265.201,74.22l58.347,58.347L230.989,235.158z M379.168,133.813
			c-4.429,4.429-10.316,6.868-16.58,6.868c-6.263,0-12.151-2.439-16.579-6.868l-82.054-82.054
			c-4.429-4.428-6.868-10.317-6.868-16.58s2.439-12.151,6.868-16.58l0.492-0.493L379.661,133.32L379.168,133.813z"/>
	</g>
</g>
<g>
</g>
<g>
</g>
<g>
</g>
<g>
</g>
<g>
</g>
<g>
</g>
<g>
</g>
<g>
</g>
<g>
</g>
<g>
</g>
<g>
</g>
<g>
</g>
<g>
</g>
<g>
</g>
<g>
</g>
</svg>
